<svg width="24" height="24" viewBox="0 0 24 24" fill="none" xmlns="http://www.w3.org/2000/svg">
<path fill-rule="evenodd" clip-rule="evenodd" d="M0 12C0 5.37258 5.37258 0 12 0C18.6274 0 24 5.37258 24 12C24 18.6274 18.6274 24 12 24C5.37258 24 0 18.6274 0 12Z" fill="white"/>
<path d="M1 12C1 5.92487 5.92487 1 12 1C18.0751 1 23 5.92487 23 12C23 18.0751 18.0751 23 12 23C5.92487 23 1 18.0751 1 12Z" stroke="#478AF7" stroke-opacity="0.5" stroke-width="2"/>
<rect x="11.4783" y="7.40436" width="1.04348" height="9.3913" fill="#478AF7" fill-opacity="0.5"/>
<rect x="8" y="9.34064" width="9.3913" height="2.08696" rx="1.04348" transform="rotate(-45 8 9.34064)" fill="#478AF7"/>
<rect x="8" y="12.8406" width="9.3913" height="2.08696" rx="1.04348" transform="rotate(-45 8 12.8406)" fill="#478AF7"/>
<rect x="8" y="16.3406" width="9.3913" height="2.08696" rx="1.04348" transform="rotate(-45 8 16.3406)" fill="#478AF7"/>
<rect x="8" y="19.8407" width="9.3913" height="2.08696" rx="1.04348" transform="rotate(-45 8 19.8407)" fill="#478AF7"/>
</svg>
