<svg width="24" height="24" viewBox="0 0 24 24" fill="none" xmlns="http://www.w3.org/2000/svg">
<path fill-rule="evenodd" clip-rule="evenodd" d="M0 12C0 5.37258 5.37258 0 12 0C18.6274 0 24 5.37258 24 12C24 18.6274 18.6274 24 12 24C5.37258 24 0 18.6274 0 12Z" fill="white"/>
<path d="M1 12C1 5.92487 5.92487 1 12 1C18.0751 1 23 5.92487 23 12C23 18.0751 18.0751 23 12 23C5.92487 23 1 18.0751 1 12Z" stroke="#478AF7" stroke-opacity="0.5" stroke-width="2"/>
<rect width="1.04348" height="9.3913" transform="matrix(-1 0 0 1 12.6381 7.40436)" fill="#478AF7" fill-opacity="0.5"/>
<rect width="9.3913" height="2.08696" rx="1.04348" transform="matrix(-0.707107 -0.707107 -0.707107 0.707107 16.1164 9.34064)" fill="#478AF7"/>
<rect width="9.3913" height="2.08696" rx="1.04348" transform="matrix(-0.707107 -0.707107 -0.707107 0.707107 16.1164 12.8406)" fill="#478AF7"/>
<rect width="9.3913" height="2.08696" rx="1.04348" transform="matrix(-0.707107 -0.707107 -0.707107 0.707107 16.1164 16.3406)" fill="#478AF7"/>
<rect width="9.3913" height="2.08696" rx="1.04348" transform="matrix(-0.707107 -0.707107 -0.707107 0.707107 16.1164 19.8407)" fill="#478AF7"/>
</svg>
