<svg width="32" height="32" viewBox="0 0 32 32" fill="none" xmlns="http://www.w3.org/2000/svg">
<path fill-rule="evenodd" clip-rule="evenodd" d="M8.50015 3.00079C10.5526 3.04172 11.6862 4.85595 11.7502 6.02782C11.8141 7.19969 11.7502 19.1449 11.7502 19.1449C11.7502 19.1449 14.1858 20.4895 14.2502 23.6855C14.3146 26.8814 11.5002 28.7936 8.75015 28.7305C6.00014 28.6675 3.02019 26.7962 3.00012 23.6855C2.98006 20.5748 5.25013 19.1449 5.25013 19.1449C5.25013 19.1449 5.27062 7.46731 5.25013 6.02782C5.22965 4.58833 6.44767 2.95987 8.50015 3.00079Z" stroke="#C3CDDF" stroke-width="2" stroke-linecap="round"/>
<path d="M8 16C8 15.4477 8.44772 15 9 15H11V17H9C8.44772 17 8 16.5523 8 16Z" fill="#C3CDDF" fill-opacity="0.5"/>
<path d="M8 12C8 11.4477 8.44772 11 9 11H11V13H9C8.44772 13 8 12.5523 8 12Z" fill="#C3CDDF" fill-opacity="0.5"/>
<path d="M8 8C8 7.44772 8.44772 7 9 7H11V9H9C8.44772 9 8 8.55228 8 8Z" fill="#C3CDDF" fill-opacity="0.5"/>
<path d="M22.0001 10C19.7909 10 18.0001 11.7909 18.0001 14C18.0001 16.2091 19.7909 18 22.0001 18C24.2092 18 26.0001 16.2091 26.0001 14C26.0001 11.7909 24.2092 10 22.0001 10Z" stroke="#C3CDDF" stroke-width="2"/>
<path d="M16 15.5045C15.4477 15.5021 15 15.0523 15 14.5001V13.6556C15 13.1033 15.4477 12.6576 16 12.66L17.8005 12.6681V15.5126L16 15.5045Z" fill="#C3CDDF" fill-opacity="0.5"/>
<path d="M18.7103 19.2961C18.318 19.6848 17.6834 19.6834 17.2929 19.2929L16.6957 18.6957C16.3052 18.3052 16.3066 17.6735 16.6989 17.2847L17.9777 16.0173L19.9891 18.0286L18.7103 19.2961Z" fill="#C3CDDF" fill-opacity="0.5"/>
<path d="M28 12.4955C28.5523 12.498 29 12.9477 29 13.5V14.3445C29 14.8968 28.5523 15.3425 28 15.34L26.1995 15.3319V12.4874L28 12.4955Z" fill="#C3CDDF" fill-opacity="0.5"/>
<path d="M25.2897 8.70393C25.682 8.31516 26.3166 8.31658 26.7071 8.70711L27.3043 9.30426C27.6948 9.69478 27.6934 10.3265 27.3011 10.7153L26.0223 11.9827L24.0109 9.97135L25.2897 8.70393Z" fill="#C3CDDF" fill-opacity="0.5"/>
<path d="M27.2961 17.2898C27.6848 17.682 27.6834 18.3166 27.2929 18.7071L26.6957 19.3043C26.3052 19.6948 25.6735 19.6934 25.2847 19.3011L24.0173 18.0223L26.0286 16.0109L27.2961 17.2898Z" fill="#C3CDDF" fill-opacity="0.5"/>
<path d="M16.7039 10.7128C16.3152 10.3205 16.3166 9.68592 16.7071 9.2954L17.3043 8.69825C17.6948 8.30772 18.3265 8.30914 18.7153 8.70141L19.9827 9.98024L17.9714 11.9916L16.7039 10.7128Z" fill="#C3CDDF" fill-opacity="0.5"/>
<path d="M23.5045 20C23.502 20.5523 23.0523 21 22.5 21H21.6555C21.1032 21 20.6575 20.5523 20.66 20L20.6681 18.1995H23.5126L23.5045 20Z" fill="#C3CDDF" fill-opacity="0.5"/>
<path d="M20.4955 7.99999C20.498 7.44771 20.9477 7 21.5 7H22.3445C22.8968 7 23.3425 7.44771 23.34 7.99999L23.3319 9.80046H20.4874L20.4955 7.99999Z" fill="#C3CDDF" fill-opacity="0.5"/>
</svg>
