<svg width="32" height="32" viewBox="0 0 32 32" fill="none" xmlns="http://www.w3.org/2000/svg">
<path d="M4 19C4 19 9.5 19 14.3714 19C18 19 19.7714 22.3114 18 24.9831C16.2286 27.6548 12.6736 26.7301 11.6851 24.9831" stroke="#478AF7" stroke-width="2" stroke-linecap="round" stroke-linejoin="round"/>
<path d="M4 12.6579C4 12.6579 4.50002 12.6579 9.37138 12.6579C13 12.6579 14.7714 9.34653 13 6.6748C11.2287 4.00308 7.67366 4.92775 6.68509 6.67478" stroke="#478AF7" stroke-width="2" stroke-linecap="round" stroke-linejoin="round"/>
<path d="M4 15.6361C4 15.6361 15.5156 15.6361 21.601 15.6361C26.134 15.6361 28.3468 11.7444 26.134 8.60443C23.9211 5.46448 19.4801 6.5512 18.2452 8.6044" stroke="#478AF7" stroke-width="2" stroke-linecap="round" stroke-linejoin="round"/>
</svg>
